<?xml version="1.0" encoding="utf-8"?>
<!-- Generator: Adobe Illustrator 23.0.3, SVG Export Plug-In . SVG Version: 6.00 Build 0)  -->
<svg version="1.1" xmlns="http://www.w3.org/2000/svg" xmlns:xlink="http://www.w3.org/1999/xlink" x="0px" y="0px"
	 viewBox="0 0 800 800" style="enable-background:new 0 0 800 800;" xml:space="preserve">
<style type="text/css">
	.st0{fill:#006BB6;}
</style>
<g id="Mono-Icon">
</g>
<g id="Layer_2">
	<g id="Group_12" transform="translate(139.876 105.431)">
		<path id="Path_20" class="st0" d="M229.6,120.9h231.1c14.4,0,18.3,3.9,18.3,18.5c0,119.8,0,239.6,0,359.3
			c0,15.1-3.6,18.7-18.6,18.7H-1.8c-15,0-18.6-3.6-18.6-18.8c0-120.3,0-240.5,0-360.8c0-12.8,4.3-17,17.5-17L229.6,120.9z
			 M453,146.9H5.5v344.7H453V146.9z"/>
		<path id="Path_21" class="st0" d="M486,466v-25.4h18.5V95.5H57.1c-0.3,6-0.6,12.1-0.9,18.5H31.5c0-11.8-0.8-23.5,0.3-35
			c0.7-7.1,7.2-9.4,14.1-9.4c23.8,0,47.5,0,71.3,0h393.9c16.1,0,19.4,3.3,19.4,19.4c0,119.3,0,238.6,0,357.9
			c0,15.6-3.5,19.2-18.9,19.2L486,466z"/>
		<path id="Path_22" class="st0" d="M30.1,455.3l104-109.9l24.4,18.9l50.6-52.2l74.7,71.8l38.2-39.7l106.4,111.2L30.1,455.3z"/>
		<path id="Path_23" class="st0" d="M315.6,291.7c-31.1-0.1-56.3-25.2-56.5-56.3c0-31.2,25.2-56.6,56.4-56.6c0.1,0,0.2,0,0.4,0
			c31.1,0.3,56.1,25.5,56.1,56.5C371.8,266.4,346.7,291.5,315.6,291.7z"/>
	</g>
</g>
</svg>
